<svg width="24" height="24" viewBox="0 0 24 24" fill="none" xmlns="http://www.w3.org/2000/svg">
<circle cx="12" cy="12" r="11" stroke="#71BF44" stroke-width="2"/>
<path d="M12.0587 20.0224C11.4268 20.0224 10.7614 19.8714 10.0736 19.5806C9.40261 19.2954 8.726 18.904 8.06617 18.4287C7.41193 17.9478 6.78006 17.411 6.18173 16.8239C5.589 16.2255 5.05219 15.5937 4.57689 14.945C4.09599 14.274 3.71016 13.603 3.43616 12.9543C3.14539 12.261 3 11.5899 3 10.9581C3 10.5219 3.07829 10.1081 3.22926 9.72227C3.38583 9.32526 3.63747 8.9562 3.97856 8.63747C4.40913 8.21249 4.90121 8 5.42684 8C5.64492 8 5.86859 8.05033 6.05871 8.13979C6.27679 8.24045 6.46132 8.39143 6.59553 8.59273L7.89282 10.4212C8.01025 10.5834 8.09972 10.74 8.16123 10.8966C8.23392 11.0643 8.27307 11.2321 8.27307 11.3942C8.27307 11.6067 8.21156 11.8136 8.09413 12.0093C8.01025 12.1603 7.88164 12.3225 7.71948 12.4846L7.33924 12.8816C7.34483 12.8984 7.35042 12.9096 7.35601 12.9208C7.42311 13.0382 7.55732 13.2395 7.81454 13.5415C8.08854 13.8546 8.34576 14.1398 8.60298 14.4026C8.9329 14.7269 9.2069 14.9842 9.46412 15.1966C9.78285 15.4651 9.98975 15.5993 10.1128 15.6608L10.1016 15.6887L10.5098 15.2861C10.6831 15.1128 10.8509 14.9842 11.013 14.9003C11.3206 14.7102 11.712 14.6766 12.1034 14.8388C12.2488 14.9003 12.4054 14.9842 12.5732 15.1016L14.4296 16.4212C14.6365 16.561 14.7875 16.74 14.877 16.9525C14.9609 17.165 15 17.3607 15 17.5564C15 17.8248 14.9385 18.0932 14.8211 18.3448C14.7036 18.5965 14.5582 18.8145 14.3737 19.0158C14.055 19.3681 13.7083 19.6198 13.3057 19.7819C12.9199 19.9385 12.5005 20.0224 12.0587 20.0224ZM5.42684 8.83877C5.11929 8.83877 4.83411 8.97297 4.56011 9.24138C4.30289 9.48183 4.12395 9.74464 4.01212 10.0298C3.89469 10.3206 3.83877 10.6281 3.83877 10.9581C3.83877 11.4781 3.96179 12.0429 4.20783 12.6244C4.45946 13.2171 4.81174 13.8322 5.25909 14.4473C5.70643 15.0624 6.21528 15.6608 6.77446 16.2255C7.33364 16.7791 7.93756 17.2936 8.55825 17.7465C9.16216 18.1883 9.78285 18.5461 10.3979 18.8034C11.3541 19.2116 12.2488 19.3066 12.987 18.9991C13.2721 18.8816 13.5238 18.7027 13.753 18.4455C13.8816 18.3057 13.9823 18.1547 14.0662 17.9758C14.1333 17.836 14.1668 17.6906 14.1668 17.5452C14.1668 17.4557 14.15 17.3663 14.1053 17.2656C14.0885 17.2321 14.055 17.1706 13.9487 17.0979L12.0923 15.7782C11.9804 15.6999 11.8798 15.644 11.7847 15.6048C11.6617 15.5545 11.6114 15.5042 11.4212 15.6216C11.3094 15.6775 11.2088 15.7614 11.0969 15.8733L10.6719 16.2926C10.4539 16.5051 10.1184 16.5555 9.86114 16.4604L9.71016 16.3933C9.4809 16.2703 9.21249 16.0801 8.91612 15.8285C8.64772 15.5993 8.35694 15.3308 8.00466 14.9842C7.73066 14.7046 7.45666 14.4082 7.17148 14.0783C6.90867 13.7707 6.71855 13.5079 6.60112 13.2898L6.53402 13.1221C6.50047 12.9935 6.48928 12.9208 6.48928 12.8425C6.48928 12.6412 6.56198 12.4623 6.70177 12.3225L7.12116 11.8863C7.23299 11.7745 7.31687 11.6682 7.37279 11.5732C7.41752 11.5005 7.4343 11.439 7.4343 11.383C7.4343 11.3383 7.41752 11.2712 7.38956 11.2041C7.35042 11.1146 7.28891 11.014 7.21062 10.9077L5.91333 9.07363C5.85741 8.99534 5.79031 8.93942 5.70643 8.90028C5.61696 8.86114 5.5219 8.83877 5.42684 8.83877ZM10.1016 15.6943L10.0121 16.0746L10.1631 15.6831C10.1351 15.6775 10.1128 15.6831 10.1016 15.6943Z" fill="#71BF44"/>
<path d="M11 5.3135H16.753C17.443 5.3135 18 5.87051 18 6.56053V7.94057" stroke="#71BF44" stroke-miterlimit="10" stroke-linecap="round" stroke-linejoin="round"/>
<path d="M12.3135 4L11 5.31352L12.3135 6.62708" stroke="#71BF44" stroke-miterlimit="10" stroke-linecap="round" stroke-linejoin="round"/>
<path d="M18 11H12.247C11.557 11 11 10.443 11 9.75295V8.37291" stroke="#71BF44" stroke-miterlimit="10" stroke-linecap="round" stroke-linejoin="round"/>
<path d="M16.6865 12.3135L18 11L16.6865 9.6864" stroke="#71BF44" stroke-miterlimit="10" stroke-linecap="round" stroke-linejoin="round"/>
</svg>
