<svg width="24" height="24" viewBox="0 0 24 24" fill="none" xmlns="http://www.w3.org/2000/svg">
<circle cx="12" cy="12" r="11.5" stroke="#71BF44"/>
<path d="M15.5 6H8.5C6.4 6 5 7.05882 5 9.52941V14.4706C5 16.9412 6.4 18 8.5 18H15.5C17.6 18 19 16.9412 19 14.4706V9.52941C19 7.05882 17.6 6 15.5 6ZM15.829 10.2988L13.638 12.0635C13.176 12.4376 12.588 12.6212 12 12.6212C11.412 12.6212 10.817 12.4376 10.362 12.0635L8.171 10.2988C7.947 10.1153 7.912 9.77647 8.087 9.55059C8.269 9.32471 8.598 9.28235 8.822 9.46588L11.013 11.2306C11.545 11.6612 12.448 11.6612 12.98 11.2306L15.171 9.46588C15.395 9.28235 15.731 9.31765 15.906 9.55059C16.088 9.77647 16.053 10.1153 15.829 10.2988Z" fill="#71BF44"/>
</svg>
