<svg width="24" height="24" viewBox="0 0 24 24" fill="none" xmlns="http://www.w3.org/2000/svg">
<circle cx="12" cy="12" r="11" stroke="#71BF44" stroke-width="2"/>
<path d="M17.3526 15.1223L17.6451 17.4922C17.7201 18.1147 17.0526 18.5497 16.5201 18.2272L13.9251 16.6822C13.7451 16.5772 13.7001 16.3523 13.7976 16.1723C14.1726 15.4823 14.3751 14.7023 14.3751 13.9223C14.3751 11.1774 12.0202 8.9424 9.12521 8.9424C8.53272 8.9424 7.95524 9.0324 7.41525 9.2124C7.13775 9.30239 6.86776 9.0474 6.93526 8.7624C7.61774 6.03246 10.2427 4 13.3776 4C17.0376 4 20 6.76744 20 10.1799C20 12.2048 18.9575 13.9973 17.3526 15.1223Z" fill="#71BF44"/>
<path d="M13.2498 13.9222C13.2498 14.8146 12.9198 15.6396 12.3649 16.2921C11.6224 17.1921 10.4449 17.7696 9.12492 17.7696L7.16746 18.9321C6.83746 19.1345 6.41747 18.8571 6.46247 18.4746L6.64997 16.9971C5.64499 16.2996 5 15.1821 5 13.9222C5 12.6022 5.70499 11.4397 6.78496 10.7497C7.45245 10.3147 8.25493 10.0672 9.12492 10.0672C11.4049 10.0672 13.2498 11.7922 13.2498 13.9222Z" fill="#71BF44"/>
</svg>
