<svg width="24" height="24" viewBox="0 0 24 24" fill="none" xmlns="http://www.w3.org/2000/svg">
<path d="M2.203 18.5887V3.99807H22.39V18.5887H2.203Z" fill="#D9D9D9"/>
<path fill-rule="evenodd" clip-rule="evenodd" d="M2.00317 3.79819H22.5899V18.7885H2.00317V3.79819ZM2.40292 4.19794V18.3888H22.1902V4.19794H2.40292Z" fill="black"/>
<path d="M0.604004 4.39781V1.19987H23.7891V4.19794L0.604004 4.39781Z" fill="#9AFFDB"/>
<path fill-rule="evenodd" clip-rule="evenodd" d="M0.404053 1H23.9889V4.3961L0.404053 4.59941V1ZM0.803795 1.39974V4.19621L23.5891 3.99978V1.39974H0.803795Z" fill="black"/>
<path d="M8.39905 5.39706V9.19462H11.9968C11.9621 7.00753 10.8655 5.41088 8.39905 5.39706Z" fill="#4DE2AD"/>
<path fill-rule="evenodd" clip-rule="evenodd" d="M8.1991 5.19608L8.40009 5.1972C9.67892 5.20436 10.6289 5.62389 11.2605 6.34966C11.8879 7.07066 12.1787 8.06808 12.1965 9.19146L12.1997 9.39449H8.1991V5.19608ZM8.59884 5.6018V8.99475H11.7904C11.7435 8.02017 11.47 7.19928 10.9589 6.61208C10.4481 6.02505 9.67993 5.64865 8.59884 5.6018Z" fill="black"/>
<path fill-rule="evenodd" clip-rule="evenodd" d="M4.48871 12.9338L7.39965 10.1941V6.19665C5.19193 6.19665 3.40222 7.98635 3.40222 10.1941C3.40222 11.2544 3.81504 12.2183 4.48871 12.9338Z" fill="#FDE4A1"/>
<path fill-rule="evenodd" clip-rule="evenodd" d="M6.9999 10.0213V6.61835C5.20108 6.8172 3.80196 8.34224 3.80196 10.1941C3.80196 11.0046 4.06964 11.752 4.52189 12.3536L6.9999 10.0213ZM4.48871 12.9338L7.39965 10.1941V6.19665C7.26473 6.19665 7.13138 6.20333 6.9999 6.21638C4.97988 6.41695 3.40222 8.12127 3.40222 10.1941C3.40222 11.1105 3.71058 11.9548 4.2292 12.6291C4.31033 12.7346 4.39662 12.8359 4.48767 12.9327C4.48802 12.933 4.48837 12.9334 4.48871 12.9338Z" fill="black"/>
<path fill-rule="evenodd" clip-rule="evenodd" d="M4.29431 12.7999L7.28704 9.99421H11.4646C11.4777 10.1257 11.4843 10.259 11.4843 10.394C11.4843 12.6017 9.69463 14.3914 7.48691 14.3914C6.18246 14.3914 5.02394 13.7666 4.29431 12.7999Z" fill="#4DE2AD"/>
<path fill-rule="evenodd" clip-rule="evenodd" d="M4.84277 12.8336C5.50053 13.5462 6.44165 13.9916 7.48691 13.9916C9.47385 13.9916 11.0846 12.3809 11.0846 10.394H7.44511L4.84277 12.8336ZM7.28704 9.99421L4.29431 12.7999C5.02394 13.7666 6.18246 14.3914 7.48691 14.3914C9.69463 14.3914 11.4843 12.6017 11.4843 10.394C11.4843 10.259 11.4777 10.1257 11.4646 9.99421H7.28704Z" fill="black"/>
<path d="M12.1965 14.1915H14.595V17.3894H12.1965V14.1915Z" fill="#9BEAF9"/>
<path fill-rule="evenodd" clip-rule="evenodd" d="M14.1952 14.5912H12.5963V16.9897H14.1952V14.5912ZM12.1965 14.1915V17.3894H14.595V14.1915H12.1965Z" fill="black"/>
<path d="M15.3945 10.5938H17.793V17.3894H15.3945V10.5938Z" fill="#9BEAF9"/>
<path fill-rule="evenodd" clip-rule="evenodd" d="M17.3932 10.9936H15.7943V16.9897H17.3932V10.9936ZM15.3945 10.5938V17.3894H17.793V10.5938H15.3945Z" fill="black"/>
<path d="M18.5924 6.99614H20.9909V17.3894H18.5924V6.99614Z" fill="#9BEAF9"/>
<path fill-rule="evenodd" clip-rule="evenodd" d="M20.5911 7.39588H18.9921V16.9897H20.5911V7.39588ZM18.5924 6.99614V17.3894H20.9909V6.99614H18.5924Z" fill="black"/>
<path d="M0.204224 23.1857C0.250768 21.045 0.600348 19.3126 2.24522 18.3888H22.2016C23.5579 19.1431 23.6597 20.7867 23.789 23.1857H0.204224Z" fill="#4DE2AD"/>
<path fill-rule="evenodd" clip-rule="evenodd" d="M2.19297 18.1889H22.2535L22.2988 18.2141C23.0393 18.626 23.4288 19.2809 23.6488 20.1198C23.8662 20.9487 23.9244 21.982 23.9887 23.175L24 23.3856H0L0.00444026 23.1814C0.0510564 21.0374 0.398873 19.1965 2.14739 18.2145L2.19297 18.1889ZM2.29827 18.5887C0.843789 19.4322 0.473687 20.9698 0.409535 22.9858H23.5781C23.5172 21.8748 23.455 20.9564 23.2622 20.2212C23.0648 19.4686 22.7366 18.9324 22.1487 18.5887H2.29827Z" fill="black"/>
<path fill-rule="evenodd" clip-rule="evenodd" d="M11.9966 19.7879V18.5887H12.3963V19.7879H11.9966Z" fill="black"/>
<path fill-rule="evenodd" clip-rule="evenodd" d="M12.1965 21.5867C12.6381 21.5867 12.996 21.2288 12.996 20.7873C12.996 20.3457 12.6381 19.9878 12.1965 19.9878C11.755 19.9878 11.3971 20.3457 11.3971 20.7873C11.3971 21.2288 11.755 21.5867 12.1965 21.5867ZM12.1965 21.9865C12.8589 21.9865 13.3958 21.4496 13.3958 20.7873C13.3958 20.1249 12.8589 19.588 12.1965 19.588C11.5342 19.588 10.9973 20.1249 10.9973 20.7873C10.9973 21.4496 11.5342 21.9865 12.1965 21.9865Z" fill="black"/>
</svg>
