<svg width="68" height="69" viewBox="0 0 68 69" fill="none" xmlns="http://www.w3.org/2000/svg">
<path d="M21.5 43C32.2696 43 41 34.2696 41 23.5C41 12.7304 32.2696 4 21.5 4C10.7304 4 2 12.7304 2 23.5C2 34.2696 10.7304 43 21.5 43Z" fill="#D0D0D0"/>
<path d="M48.5 55C59.2696 55 68 46.0457 68 35C68 23.9543 59.2696 15 48.5 15C37.7304 15 29 23.9543 29 35C29 46.0457 37.7304 55 48.5 55Z" fill="#D0D0D0"/>
<path d="M28 69C39.0457 69 48 60.2696 48 49.5C48 38.7304 39.0457 30 28 30C16.9543 30 8 38.7304 8 49.5C8 60.2696 16.9543 69 28 69Z" fill="#D0D0D0"/>
<path d="M34.5 61C49.1355 61 61 49.1355 61 34.5C61 19.8645 49.1355 8 34.5 8C19.8645 8 8 19.8645 8 34.5C8 49.1355 19.8645 61 34.5 61Z" fill="#75C043"/>
<path d="M43 6C44.6569 6 46 4.65685 46 3C46 1.34315 44.6569 0 43 0C41.3431 0 40 1.34315 40 3C40 4.65685 41.3431 6 43 6Z" fill="#058557"/>
<path d="M51.5 14C52.3284 14 53 13.3284 53 12.5C53 11.6716 52.3284 11 51.5 11C50.6716 11 50 11.6716 50 12.5C50 13.3284 50.6716 14 51.5 14Z" fill="#058557"/>
</svg>
