<svg width="24" height="15" viewBox="0 0 24 15" fill="none" xmlns="http://www.w3.org/2000/svg">
<path d="M22.9054 3.79088V2.61516C22.9054 2.61516 20.5541 2.37173 17.7162 3.46636C14.8783 4.56098 12.8108 4.2773 12.527 3.99338C12.2432 3.70978 10.946 2.45287 10.7431 2.29064C10.5405 2.12869 10.135 1.47998 9.68911 1.88531C9.6112 1.95628 9.52823 1.9972 9.44437 2.02697L9.89681 1.09697C9.96998 0.946875 10.1221 0.851531 10.2891 0.851531H12.7297C12.9648 0.851531 12.9487 0.660891 12.9487 0.425625C12.9487 0.190313 12.9647 0 12.7297 0H10.2891C9.79627 0 9.34678 0.28125 9.1313 0.724453L8.57133 1.87552C8.33283 1.69331 7.41792 1.06284 6.1012 0.993516V3.83109C6.1012 3.83109 7.07902 3.74353 7.67227 3.64242L6.98536 4.79892C6.03642 4.26652 4.92577 3.99741 3.759 4.08464C2.86575 4.15092 2.0355 4.41966 1.30955 4.8412L1.57842 5.64778C2.17186 5.33878 2.83612 5.14209 3.54586 5.08931C4.70606 5.00278 5.67487 5.1833 6.48839 5.63564L5.70511 6.95405C5.19534 6.72145 4.63064 6.58823 4.03364 6.58823C1.80586 6.58819 0 8.394 0 10.6218C0 12.8495 1.80586 14.6557 4.03373 14.6557C6.26142 14.6557 8.06747 12.8495 8.06747 10.6218C8.06747 9.33989 7.46761 8.20003 6.53545 7.46137L7.28217 6.20414C8.03667 6.89311 8.6242 7.8998 9.08109 9.24319C9.09647 9.28884 9.62601 9.74283 9.62836 9.79088L9.69562 9.64416C9.76481 10.9436 10.7836 10.9666 10.7836 10.9666C10.7836 10.9666 13.4187 10.9666 14.5944 10.9666C16.054 5.41242 21.9325 4.07447 22.9054 3.79088ZM6.44602 10.6218C6.44602 11.954 5.36578 13.0341 4.03373 13.0341C2.7015 13.0341 1.62141 11.954 1.62141 10.6218C1.62141 9.28987 2.7015 8.20945 4.03373 8.20945C4.32783 8.20945 4.60856 8.26491 4.86923 8.36123L4.01902 9.79219C3.56691 9.8003 3.20245 10.1677 3.20245 10.6217C3.20245 11.0808 3.57464 11.453 4.03373 11.453C4.49283 11.453 4.86483 11.0808 4.86483 10.6217C4.86483 10.5277 4.8457 10.4385 4.81683 10.354L5.69508 8.87606C6.15684 9.31552 6.44602 9.93417 6.44602 10.6218ZM7.78997 5.34956L8.41467 4.29787C8.69541 4.99936 9.01453 6.11287 9.2633 7.14661C8.89805 6.44822 8.39372 5.83908 7.78997 5.34956Z" fill="black"/>
<path d="M19.9663 6.5882C17.7385 6.5882 15.9325 8.39406 15.9325 10.6218C15.9325 12.8495 17.7385 14.6557 19.9663 14.6557C22.194 14.6557 24 12.8495 24 10.6218C24 8.39401 22.194 6.5882 19.9663 6.5882ZM19.9663 13.0341C18.634 13.0341 17.5539 11.954 17.5539 10.6218C17.5539 9.28988 18.634 8.20946 19.9663 8.20946C21.2984 8.20946 22.3784 9.28988 22.3784 10.6218C22.3784 11.954 21.2983 13.0341 19.9663 13.0341Z" fill="black"/>
<path d="M19.9663 9.79088C19.5072 9.79088 19.1352 10.1627 19.1352 10.6218C19.1352 11.0808 19.5072 11.453 19.9663 11.453C20.4253 11.453 20.7974 11.0808 20.7974 10.6218C20.7973 10.1627 20.4253 9.79088 19.9663 9.79088Z" fill="black"/>
</svg>
