<svg width="24" height="24" viewBox="0 0 24 24" fill="none" xmlns="http://www.w3.org/2000/svg">
<path d="M10.9473 0H12.6315V5.47368H10.9473V0Z" fill="#75C043"/>
<path fill-rule="evenodd" clip-rule="evenodd" d="M12.2104 0.421053H11.3683V5.05263H12.2104V0.421053ZM10.9473 0V5.47368H12.6315V0H10.9473Z" fill="black"/>
<path d="M10.9473 18.5263H12.6315V24H10.9473V18.5263Z" fill="#75C043"/>
<path fill-rule="evenodd" clip-rule="evenodd" d="M12.2104 18.9474H11.3683V23.5789H12.2104V18.9474ZM10.9473 18.5263V24H12.6315V18.5263H10.9473Z" fill="black"/>
<path d="M0 12.6316L0 10.9474H5.47368V12.6316H0Z" fill="#75C043"/>
<path fill-rule="evenodd" clip-rule="evenodd" d="M0.421053 11.3684L0.421053 12.2105H5.05263V11.3684H0.421053ZM0 12.6316H5.47368V10.9474H0L0 12.6316Z" fill="black"/>
<path d="M18.5264 12.6316V10.9474H24.0001V12.6316H18.5264Z" fill="#75C043"/>
<path fill-rule="evenodd" clip-rule="evenodd" d="M18.9474 11.3684V12.2105H23.579V11.3684H18.9474ZM18.5264 12.6316H24.0001V10.9474H18.5264V12.6316Z" fill="black"/>
<path fill-rule="evenodd" clip-rule="evenodd" d="M12 20.6316C16.7671 20.6316 20.6316 16.7671 20.6316 12C20.6316 7.23291 16.7671 3.36842 12 3.36842C7.2329 3.36842 3.36841 7.23291 3.36841 12C3.36841 16.7671 7.2329 20.6316 12 20.6316ZM12 22.3158C17.6972 22.3158 22.3158 17.6973 22.3158 12C22.3158 6.30275 17.6972 1.68421 12 1.68421C6.30274 1.68421 1.6842 6.30275 1.6842 12C1.6842 17.6973 6.30274 22.3158 12 22.3158Z" fill="black"/>
<path fill-rule="evenodd" clip-rule="evenodd" d="M12 21.0526C16.9996 21.0526 21.0526 16.9996 21.0526 12C21.0526 7.00037 16.9996 2.94737 12 2.94737C7.00033 2.94737 2.94733 7.00037 2.94733 12C2.94733 16.9996 7.00033 21.0526 12 21.0526ZM12 21.8947C17.4647 21.8947 21.8947 17.4647 21.8947 12C21.8947 6.53529 17.4647 2.10526 12 2.10526C6.53525 2.10526 2.10522 6.53529 2.10522 12C2.10522 17.4647 6.53525 21.8947 12 21.8947Z" fill="#75C043"/>
<path d="M13.8949 9.6842C13.8949 10.8469 12.9523 11.7895 11.7896 11.7895C10.6269 11.7895 9.68433 10.8469 9.68433 9.6842C9.68433 8.5215 10.6269 7.57894 11.7896 7.57894C12.9523 7.57894 13.8949 8.5215 13.8949 9.6842Z" fill="#75C043"/>
<path fill-rule="evenodd" clip-rule="evenodd" d="M11.7896 11.3684C12.7198 11.3684 13.4738 10.6144 13.4738 9.6842C13.4738 8.75404 12.7198 7.99999 11.7896 7.99999C10.8594 7.99999 10.1054 8.75404 10.1054 9.6842C10.1054 10.6144 10.8594 11.3684 11.7896 11.3684ZM11.7896 11.7895C12.9523 11.7895 13.8949 10.8469 13.8949 9.6842C13.8949 8.5215 12.9523 7.57894 11.7896 7.57894C10.6269 7.57894 9.68433 8.5215 9.68433 9.6842C9.68433 10.8469 10.6269 11.7895 11.7896 11.7895Z" fill="black"/>
<path d="M15.1579 16.8421H8.42105C8.18851 16.8421 8 16.6536 8 16.421V15.0638C8 14.9876 8.02132 14.9114 8.0612 14.8464C10.2439 11.2936 13.2842 11.2228 15.5174 14.8461C15.5574 14.9112 15.5789 14.9877 15.5789 15.0641V16.421C15.5789 16.6536 15.3904 16.8421 15.1579 16.8421Z" fill="#75C043"/>
<path fill-rule="evenodd" clip-rule="evenodd" d="M11.7689 11.9447C13.1862 11.9351 14.5616 12.8942 15.6965 14.7357C15.7573 14.8342 15.7894 14.9491 15.7894 15.0641V16.421C15.7894 16.7698 15.5067 17.0526 15.1578 17.0526H8.42101C8.0722 17.0526 7.78943 16.7698 7.78943 16.421V15.0638C7.78943 14.9491 7.82131 14.8347 7.88177 14.7362C8.99108 12.9306 10.3527 11.9543 11.7689 11.9447ZM11.7717 12.3658C10.5638 12.3739 9.31388 13.2095 8.24053 14.9566C8.22124 14.9881 8.21048 15.0261 8.21048 15.0638V16.421C8.21048 16.5373 8.30474 16.6316 8.42101 16.6316H15.1578C15.2741 16.6316 15.3684 16.5373 15.3684 16.421V15.0641C15.3684 15.0264 15.3575 14.9881 15.3381 14.9566L15.5173 14.8461L15.3381 14.9566C14.2399 13.1747 12.9785 12.3576 11.7717 12.3658Z" fill="black"/>
</svg>
