<svg width="18" height="17" viewBox="0 0 18 17" fill="none" xmlns="http://www.w3.org/2000/svg">
<path d="M9 10.9492C10.8985 10.9492 12.4375 9.4102 12.4375 7.51172C12.4375 5.61324 10.8985 4.07422 9 4.07422C7.10152 4.07422 5.5625 5.61324 5.5625 7.51172C5.5625 9.4102 7.10152 10.9492 9 10.9492Z" fill="#000"/>
<path d="M9 0.0117188C7.39303 0.0117188 5.82214 0.488242 4.486 1.38103C3.14985 2.27381 2.10844 3.54277 1.49348 5.02742C0.87852 6.51207 0.717618 8.14573 1.03112 9.72183C1.34463 11.2979 2.11846 12.7457 3.25476 13.882C4.39106 15.0183 5.8388 15.7921 7.41489 16.1056C8.99099 16.4191 10.6247 16.2582 12.1093 15.6432C13.594 15.0283 14.8629 13.9869 15.7557 12.6507C16.6485 11.3146 17.125 9.74369 17.125 8.13672C17.1209 5.9831 16.2635 3.91888 14.7407 2.39604C13.2178 0.873199 11.1536 0.0158484 9 0.0117188ZM14.1406 12.6992C13.6347 11.9735 12.9828 11.3615 12.2266 10.9023C11.3583 11.7341 10.2024 12.1985 9 12.1985C7.79762 12.1985 6.64168 11.7341 5.77344 10.9023C5.01725 11.3615 4.3653 11.9735 3.85938 12.6992C2.97952 11.7084 2.40473 10.4845 2.20419 9.17464C2.00365 7.86482 2.18591 6.52495 2.72903 5.31629C3.27214 4.10763 4.15298 3.08167 5.26553 2.36189C6.37807 1.64211 7.67492 1.25918 9 1.25918C10.3251 1.25918 11.6219 1.64211 12.7345 2.36189C13.847 3.08167 14.7279 4.10763 15.271 5.31629C15.8141 6.52495 15.9964 7.86482 15.7958 9.17464C15.5953 10.4845 15.0205 11.7084 14.1406 12.6992Z" fill="#000"/>
</svg>
