<svg width="24" height="24" viewBox="0 0 24 24" fill="none" xmlns="http://www.w3.org/2000/svg">
<path d="M6.72 1.91528C4.07456 1.91528 1.92 4.06984 1.92 6.71528V17.2753C1.92 19.9207 4.07456 22.0753 6.72 22.0753H17.28C19.9254 22.0753 22.08 19.9207 22.08 17.2753V6.71528C22.08 4.06984 19.9254 1.91528 17.28 1.91528H6.72ZM6.72 2.87528H17.28C19.4067 2.87528 21.12 4.58856 21.12 6.71528V17.2753C21.12 19.402 19.4067 21.1153 17.28 21.1153H6.72C4.59328 21.1153 2.88 19.402 2.88 17.2753V6.71528C2.88 4.58856 4.59328 2.87528 6.72 2.87528Z" fill="black"/>
<path d="M17.7727 9.97188C17.8641 9.89922 18 9.96719 18 10.082V14.875C18 15.4961 17.4961 16 16.875 16H7.125C6.50391 16 6 15.4961 6 14.875V10.0844C6 9.96719 6.13359 9.90156 6.22734 9.97422C6.75234 10.382 7.44844 10.9 9.83906 12.6367C10.3336 12.9977 11.168 13.757 12 13.7523C12.8367 13.7594 13.6875 12.9836 14.1633 12.6367C16.5539 10.9 17.2477 10.3797 17.7727 9.97188ZM12 13C12.5438 13.0094 13.3266 12.3156 13.7203 12.0297C16.8305 9.77266 17.0672 9.57578 17.7844 9.01328C17.9203 8.90781 18 8.74375 18 8.57031V8.125C18 7.50391 17.4961 7 16.875 7H7.125C6.50391 7 6 7.50391 6 8.125V8.57031C6 8.74375 6.07969 8.90547 6.21562 9.01328C6.93281 9.57344 7.16953 9.77266 10.2797 12.0297C10.6734 12.3156 11.4562 13.0094 12 13Z" fill="black"/>
</svg>
