<svg width="24" height="24" viewBox="0 0 24 24" fill="none" xmlns="http://www.w3.org/2000/svg">
<circle cx="12" cy="12" r="12" fill="white"/>
<path d="M10.3333 7.5C10.3333 6.12126 11.4546 5 12.8333 5H15.1667C15.2109 5 15.2533 5.01757 15.2845 5.04882C15.3158 5.08008 15.3333 5.12247 15.3333 5.16667V7.5C15.3333 7.5442 15.3158 7.58659 15.2845 7.61785C15.2533 7.6491 15.2109 7.66666 15.1667 7.66667H13.5C13.2221 7.66667 13 7.88843 13 8.16667V9.33333H15.1667C15.1905 9.33338 15.2141 9.33854 15.2357 9.34846C15.2574 9.35839 15.2767 9.37285 15.2923 9.39087C15.3079 9.40889 15.3195 9.43004 15.3262 9.45291C15.333 9.47578 15.3347 9.49983 15.3314 9.52344L14.998 11.8568C14.9924 11.8965 14.9726 11.9328 14.9424 11.9591C14.9121 11.9854 14.8734 11.9999 14.8333 12H13V18.1667C13 18.2109 12.9824 18.2533 12.9512 18.2845C12.9199 18.3158 12.8775 18.3333 12.8333 18.3333H10.5C10.4558 18.3333 10.4134 18.3158 10.3822 18.2845C10.3509 18.2533 10.3333 18.2109 10.3333 18.1667V12H9.16667C9.12247 12 9.08008 11.9824 9.04882 11.9512C9.01757 11.9199 9 11.8775 9 11.8333V9.5C9 9.4558 9.01757 9.41341 9.04882 9.38215C9.08008 9.3509 9.12247 9.33334 9.16667 9.33333H10.3333V7.5Z" fill="black"/>
</svg>
