<svg width="24" height="24" viewBox="0 0 24 24" fill="none" xmlns="http://www.w3.org/2000/svg">
<path d="M6.72 1.91528C4.07456 1.91528 1.92 4.06984 1.92 6.71528V17.2753C1.92 19.9207 4.07456 22.0753 6.72 22.0753H17.28C19.9254 22.0753 22.08 19.9207 22.08 17.2753V6.71528C22.08 4.06984 19.9254 1.91528 17.28 1.91528H6.72ZM6.72 2.87528H17.28C19.4067 2.87528 21.12 4.58856 21.12 6.71528V17.2753C21.12 19.402 19.4067 21.1153 17.28 21.1153H6.72C4.59328 21.1153 2.88 19.402 2.88 17.2753V6.71528C2.88 4.58856 4.59328 2.87528 6.72 2.87528Z" fill="black"/>
<path d="M11.5889 16.7781C8.56188 12.2526 8 11.7882 8 10.125C8 7.84682 9.79085 6 12 6C14.2091 6 16 7.84682 16 10.125C16 11.7882 15.4381 12.2526 12.4111 16.7781C12.2124 17.074 11.7875 17.074 11.5889 16.7781ZM12 11.8437C12.9205 11.8437 13.6667 11.0742 13.6667 10.125C13.6667 9.17576 12.9205 8.40625 12 8.40625C11.0795 8.40625 10.3333 9.17576 10.3333 10.125C10.3333 11.0742 11.0795 11.8437 12 11.8437Z" fill="black"/>
</svg>
