<svg width="24" height="24" viewBox="0 0 24 24" fill="none" xmlns="http://www.w3.org/2000/svg">
<path d="M0.206909 10.5517V0H17.3793C18.0748 11.7225 9.82999 14.7605 0.206909 10.5517Z" fill="#9AFFDB"/>
<path d="M8.82746 2.06896C6.7673 3.04939 5.5938 3.12759 3.44815 2.06896L5.31022 5.7931H10.2757L11.5171 2.06896H8.82746Z" fill="#4DE2AD"/>
<path d="M10.6895 8.48276H4.68953C1.88138 10.8849 1.36013 12.2523 0.344698 14.6897C0.142586 16.8213 0.18034 17.9332 0.344698 19.8621C1.28665 21.7012 2.22458 22.2435 4.27573 22.7586H10.8964C11.9522 22.4776 12.5105 22.2394 13.3792 21.5172V11.5862L10.6895 8.48276Z" fill="#4DE2AD"/>
<path fill-rule="evenodd" clip-rule="evenodd" d="M2.98794 1.61121L3.53968 1.88342C4.5985 2.40583 5.3944 2.63595 6.16738 2.62673C6.94181 2.61749 7.7179 2.36787 8.73854 1.88215L8.78072 1.86207H11.8042L10.4248 6H5.18233L2.98794 1.61121ZM8.87402 2.27586C7.85395 2.75805 7.02433 3.03032 6.17232 3.04049C5.45577 3.04904 4.74028 2.87213 3.89822 2.5065L5.43807 5.58621H10.1266L11.23 2.27586H8.87402ZM4.61309 8.27586H10.784L13.5861 11.509V21.6143L13.5114 21.6763C13.0685 22.0446 12.6977 22.2952 12.2984 22.4894C11.9004 22.683 11.4819 22.8169 10.9496 22.9586L10.9235 22.9655H4.25014L4.22532 22.9593C3.19387 22.7002 2.41585 22.4285 1.7749 21.9759C1.12988 21.5203 0.640721 20.894 0.160536 19.9564L0.14199 19.9202L0.138536 19.8796C-0.0266054 17.9416 -0.0648341 16.8169 0.138713 14.6701L0.141666 14.639L0.153701 14.6101C0.180575 14.5456 0.207126 14.4818 0.233405 14.4186C0.701639 13.2932 1.08358 12.3752 1.67076 11.4612C2.29302 10.4926 3.14067 9.5354 4.55502 8.32554L4.61309 8.27586ZM4.76609 8.68966C3.40749 9.8581 2.60488 10.7727 2.0189 11.6848C1.45213 12.5671 1.08337 13.4532 0.61064 14.5891C0.589875 14.639 0.56891 14.6894 0.547719 14.7403C0.351756 16.8216 0.387538 17.9185 0.547374 19.8038C1.00269 20.6844 1.44905 21.2391 2.01361 21.6379C2.58522 22.0416 3.29481 22.2977 4.30136 22.5517H10.8693C11.3797 22.4151 11.7612 22.2906 12.1174 22.1173C12.4571 21.9521 12.7806 21.7391 13.1723 21.4196V11.6634L10.595 8.68966H4.76609Z" fill="black"/>
<path d="M3.10339 7.03448C3.10339 6.12036 3.84444 5.37931 4.75857 5.37931H10.1379C11.052 5.37931 11.793 6.12036 11.793 7.03448V7.03448C11.793 7.94861 11.052 8.68966 10.1379 8.68966H4.75857C3.84444 8.68966 3.10339 7.94861 3.10339 7.03448V7.03448Z" fill="white"/>
<path fill-rule="evenodd" clip-rule="evenodd" d="M10.1379 5.7931H4.75857C4.07297 5.7931 3.51719 6.34889 3.51719 7.03448C3.51719 7.72008 4.07297 8.27586 4.75857 8.27586H10.1379C10.8235 8.27586 11.3793 7.72008 11.3793 7.03448C11.3793 6.34889 10.8235 5.7931 10.1379 5.7931ZM4.75857 5.37931C3.84444 5.37931 3.10339 6.12036 3.10339 7.03448C3.10339 7.94861 3.84444 8.68966 4.75857 8.68966H10.1379C11.052 8.68966 11.793 7.94861 11.793 7.03448C11.793 6.12036 11.052 5.37931 10.1379 5.37931H4.75857Z" fill="black"/>
<path d="M13.4482 21.2865V11.7766C16.9358 7.63869 22.3758 10.139 23.7931 11.7766V21.2865C20.2625 23.7999 16.2037 23.8022 13.4482 21.2865Z" fill="#9AFFDB"/>
<path fill-rule="evenodd" clip-rule="evenodd" d="M19.4294 9.40645C21.4432 9.72545 23.2043 10.7802 23.9495 11.6412L24 11.6995V21.3932L23.913 21.4551C20.3212 24.012 16.1515 24.0347 13.3087 21.4393L13.2413 21.3778V11.701L13.29 11.6432C15.0906 9.50694 17.4016 9.08524 19.4294 9.40645ZM13.6551 11.8527V21.1945C16.2997 23.5498 20.1671 23.567 23.5862 21.1792V11.8553C22.8838 11.0868 21.2503 10.1138 19.3646 9.81514C17.4646 9.51418 15.3347 9.90078 13.6551 11.8527Z" fill="black"/>
<path fill-rule="evenodd" clip-rule="evenodd" d="M18.4871 14.1442C16.5201 14.1886 14.5826 13.4992 13.2885 11.9245L13.6081 11.6617C14.8056 13.1189 16.6103 13.7726 18.4777 13.7305C20.3465 13.6884 22.2603 12.9487 23.6515 11.6423L23.9348 11.9439C22.4655 13.3237 20.4527 14.0999 18.4871 14.1442ZM13.5836 15.3607C16.6797 18.036 20.8185 17.2307 23.6792 15.3445L23.907 15.69C20.9682 17.6276 16.6083 18.5212 13.313 15.6738L13.5836 15.3607ZM23.9162 18.787C20.5996 21.241 16.074 21.5221 13.3024 18.7674L13.5941 18.4739C16.1771 21.0411 20.4628 20.8274 23.6701 18.4544L23.9162 18.787Z" fill="black"/>
<path fill-rule="evenodd" clip-rule="evenodd" d="M7.5246 12.5014C5.81686 12.5014 4.43246 13.8858 4.43246 15.5936C4.43246 17.3013 5.81686 18.6857 7.5246 18.6857C9.23234 18.6857 10.6167 17.3013 10.6167 15.5936C10.6167 13.8858 9.23234 12.5014 7.5246 12.5014ZM3.93103 15.5936C3.93103 13.6089 5.53993 12 7.5246 12C9.50927 12 11.1182 13.6089 11.1182 15.5936C11.1182 17.5782 9.50927 19.1871 7.5246 19.1871C5.53993 19.1871 3.93103 17.5782 3.93103 15.5936Z" fill="white"/>
<path fill-rule="evenodd" clip-rule="evenodd" d="M7.52464 17.0143C7.66311 17.0143 7.77535 17.1265 7.77535 17.265V17.5993C7.77535 17.7377 7.66311 17.85 7.52464 17.85C7.38617 17.85 7.27393 17.7377 7.27393 17.5993V17.265C7.27393 17.1265 7.38617 17.0143 7.52464 17.0143Z" fill="#9AFFDB"/>
<path fill-rule="evenodd" clip-rule="evenodd" d="M7.52464 13.3371C7.66311 13.3371 7.77535 13.4494 7.77535 13.5879V13.9221C7.77535 14.0606 7.66311 14.1729 7.52464 14.1729C7.38617 14.1729 7.27393 14.0606 7.27393 13.9221V13.5879C7.27393 13.4494 7.38617 13.3371 7.52464 13.3371Z" fill="#9AFFDB"/>
<path fill-rule="evenodd" clip-rule="evenodd" d="M6.271 14.7579C6.271 14.117 6.87696 13.6714 7.52457 13.6714C8.17217 13.6714 8.77814 14.117 8.77814 14.7579C8.77814 14.8963 8.66589 15.0086 8.52742 15.0086C8.38896 15.0086 8.27671 14.8963 8.27671 14.7579C8.27671 14.4756 7.98472 14.1729 7.52457 14.1729C7.06441 14.1729 6.77242 14.4756 6.77242 14.7579C6.77242 15.0401 7.06442 15.3429 7.52457 15.3429C8.17217 15.3429 8.77814 15.7884 8.77814 16.4293C8.77814 17.0702 8.17217 17.5157 7.52457 17.5157C6.87696 17.5157 6.271 17.0702 6.271 16.4293C6.271 16.2908 6.38324 16.1786 6.52171 16.1786C6.66018 16.1786 6.77242 16.2908 6.77242 16.4293C6.77242 16.7115 7.06442 17.0143 7.52457 17.0143C7.98472 17.0143 8.27671 16.7115 8.27671 16.4293C8.27671 16.1471 7.98472 15.8443 7.52457 15.8443C6.87696 15.8443 6.271 15.3987 6.271 14.7579Z" fill="#9AFFDB"/>
</svg>
