<svg width="28" height="32" viewBox="0 0 28 32" fill="none" xmlns="http://www.w3.org/2000/svg">
<g filter="url(#filter0_d_656_11343)">
<path d="M14.4305 4.5006C14.9842 4.63512 15.5659 4.70089 16.0867 4.91552C18.0602 5.72983 19.2626 7.20478 19.6302 9.31707C20.0386 11.6625 18.8865 14.054 16.7622 15.1936C14.6942 16.3032 12.6339 16.1896 10.7052 14.8474C9.1567 13.7694 8.3412 12.2293 8.30592 10.3442C8.26646 8.24927 9.17224 6.60332 10.9055 5.4279C11.6708 4.90895 12.5281 4.62436 13.4488 4.53109C13.4907 4.5269 13.5307 4.51076 13.572 4.5C13.8578 4.5006 14.1442 4.5006 14.4305 4.5006Z" fill="white"></path>
<path d="M14.3203 27.5006C11.4774 27.4767 9.20971 26.7473 7.20863 25.2556C6.02842 24.3761 5.04074 23.3047 4.27426 22.039C4.15887 21.8483 4.1224 21.657 4.22165 21.4495C5.21771 19.3665 6.82718 18.0315 9.0716 17.4701C9.24499 17.427 9.42255 17.4025 9.59713 17.3654C9.9439 17.2919 10.2392 17.3959 10.5226 17.5956C11.6502 18.389 12.91 18.7447 14.2839 18.6867C15.3409 18.6425 16.3585 18.386 17.2093 17.7606C17.8436 17.2943 18.4528 17.3242 19.1308 17.5131C21.044 18.0458 22.4867 19.1871 23.5055 20.8803C23.9473 21.6145 23.964 21.6289 23.4917 22.3391C22.3474 24.0604 20.8688 25.4188 19.0029 26.3234C17.3133 27.1419 15.6877 27.503 14.3203 27.5006Z" fill="white"></path>
</g>
<defs>
<filter id="filter0_d_656_11343" x="0.164062" y="0.5" width="27.6797" height="31" filterUnits="userSpaceOnUse" color-interpolation-filters="sRGB">
<feFlood flood-opacity="0" result="BackgroundImageFix"></feFlood>
<feColorMatrix in="SourceAlpha" type="matrix" values="0 0 0 0 0 0 0 0 0 0 0 0 0 0 0 0 0 0 127 0" result="hardAlpha"></feColorMatrix>
<feOffset></feOffset>
<feGaussianBlur stdDeviation="2"></feGaussianBlur>
<feColorMatrix type="matrix" values="0 0 0 0 0.454902 0 0 0 0 0.368627 0 0 0 0 1 0 0 0 0.7 0"></feColorMatrix>
<feBlend mode="normal" in2="BackgroundImageFix" result="effect1_dropShadow_656_11343"></feBlend>
<feBlend mode="normal" in="SourceGraphic" in2="effect1_dropShadow_656_11343" result="shape"></feBlend>
</filter>
</defs>
</svg>