<svg width="24" height="24" viewBox="0 0 24 24" fill="none" xmlns="http://www.w3.org/2000/svg">
<path d="M6.72 1.91528C4.07456 1.91528 1.92 4.06984 1.92 6.71528V17.2753C1.92 19.9207 4.07456 22.0753 6.72 22.0753H17.28C19.9254 22.0753 22.08 19.9207 22.08 17.2753V6.71528C22.08 4.06984 19.9254 1.91528 17.28 1.91528H6.72ZM6.72 2.87528H17.28C19.4067 2.87528 21.12 4.58856 21.12 6.71528V17.2753C21.12 19.402 19.4067 21.1153 17.28 21.1153H6.72C4.59328 21.1153 2.88 19.402 2.88 17.2753V6.71528C2.88 4.58856 4.59328 2.87528 6.72 2.87528Z" fill="black"/>
<path d="M17.6863 13.773L15.28 12.7417C15.1772 12.6979 15.063 12.6887 14.9545 12.7154C14.846 12.7422 14.7491 12.8034 14.6784 12.89L13.6128 14.1919C11.9404 13.4034 10.5944 12.0575 9.80591 10.3851L11.1079 9.31941C11.1946 9.24887 11.256 9.152 11.2827 9.04345C11.3095 8.93491 11.3002 8.8206 11.2561 8.71784L10.2249 6.31155C10.1765 6.20078 10.0911 6.11033 9.98323 6.05582C9.87538 6.0013 9.75188 5.98613 9.63403 6.01291L7.39962 6.52854C7.286 6.55478 7.18463 6.61875 7.11205 6.71002C7.03947 6.80129 6.99997 6.91447 7 7.03107C7 12.5419 11.4667 17 16.9689 17C17.0856 17.0001 17.1988 16.9606 17.2901 16.888C17.3814 16.8154 17.4454 16.714 17.4717 16.6004L17.9873 14.366C18.0139 14.2475 17.9984 14.1236 17.9435 14.0153C17.8885 13.9071 17.7976 13.8214 17.6863 13.773Z" fill="black"/>
</svg>
