<svg width="24" height="24" viewBox="0 0 24 24" fill="none" xmlns="http://www.w3.org/2000/svg">
<g clip-path="url(#clip0_456_402)">
<circle cx="12" cy="12" r="12" fill="white"/>
<path d="M16.6863 14.773L14.28 13.7417C14.1772 13.6979 14.063 13.6887 13.9545 13.7154C13.846 13.7422 13.7491 13.8034 13.6784 13.89L12.6128 15.1919C10.9404 14.4034 9.59444 13.0575 8.80591 11.3851L10.1079 10.3194C10.1946 10.2489 10.256 10.152 10.2827 10.0435C10.3095 9.93491 10.3002 9.8206 10.2561 9.71784L9.22486 7.31155C9.17654 7.20078 9.09109 7.11033 8.98323 7.05582C8.87538 7.0013 8.75188 6.98613 8.63403 7.01291L6.39962 7.52854C6.286 7.55478 6.18463 7.61875 6.11205 7.71002C6.03947 7.80129 5.99997 7.91447 6 8.03107C6 13.5419 10.4667 18 15.9689 18C16.0856 18.0001 16.1988 17.9606 16.2901 17.888C16.3814 17.8154 16.4454 17.714 16.4717 17.6004L16.9873 15.366C17.0139 15.2475 16.9984 15.1236 16.9435 15.0153C16.8885 14.9071 16.7976 14.8214 16.6863 14.773Z" fill="black"/>
</g>
<defs>
<clipPath id="clip0_456_402">
<rect width="24" height="24" fill="white"/>
</clipPath>
</defs>
</svg>
