<svg width="24" height="24" viewBox="0 0 24 24" fill="none" xmlns="http://www.w3.org/2000/svg">
<g clip-path="url(#clip0_603_48)">
<mask id="mask0_603_48" style="mask-type:luminance" maskUnits="userSpaceOnUse" x="0" y="0" width="24" height="24">
<path d="M24 0H0V24H24V0Z" fill="white"/>
</mask>
<g mask="url(#mask0_603_48)">
<path d="M12 24C18.6274 24 24 18.6274 24 12C24 5.37258 18.6274 0 12 0C5.37258 0 0 5.37258 0 12C0 18.6274 5.37258 24 12 24Z" fill="white"/>
</g>
<g clip-path="url(#clip1_603_48)">
<path d="M5.39632 18.2532C5.3545 18.2532 5.31468 18.2481 5.27685 18.2379C5.24001 18.2269 5.20765 18.2129 5.17978 18.1955C5.1519 18.1777 5.13 18.1569 5.11407 18.1332C5.09814 18.1089 5.09017 18.0832 5.09017 18.0563V17.6628C5.09017 17.6359 5.09814 17.6105 5.11407 17.5869C5.13 17.5626 5.1519 17.5417 5.17978 17.5245C5.20765 17.5066 5.24001 17.4925 5.27685 17.4823C5.31468 17.4713 5.3545 17.4659 5.39632 17.4659H6.43573C6.47755 17.4659 6.51688 17.4713 6.55372 17.4823C6.59155 17.4925 6.6244 17.5066 6.65229 17.5245C6.68016 17.5417 6.70207 17.5626 6.71799 17.5869C6.73393 17.6105 6.74189 17.6359 6.74189 17.6628V17.8404H6.43573V17.6628H5.39632V18.0563H6.43573C6.47755 18.0563 6.51688 18.0615 6.55372 18.0718C6.59155 18.082 6.6244 18.0961 6.65229 18.114C6.68016 18.1319 6.70207 18.153 6.71799 18.1774C6.73393 18.2011 6.74189 18.2263 6.74189 18.2532V18.6459C6.74189 18.6727 6.73393 18.6984 6.71799 18.7227C6.70207 18.7463 6.68016 18.7672 6.65229 18.7851C6.6244 18.803 6.59155 18.8171 6.55372 18.8274C6.51688 18.8376 6.47755 18.8427 6.43573 18.8427H5.36645C5.32464 18.8427 5.28481 18.8376 5.24698 18.8274C5.21014 18.8171 5.17778 18.803 5.14991 18.7851C5.12203 18.7672 5.10013 18.7463 5.0842 18.7227C5.06827 18.6984 5.0603 18.6727 5.0603 18.6459V18.4693H5.36645V18.6459H6.43573V18.2532H5.39632Z" fill="#D26500"/>
<path d="M7.2926 18.0511H7.89243V18.2875H7.2926V18.0511Z" fill="#D26500"/>
<path d="M9.47732 18.6459C9.6108 18.6459 9.71347 18.6212 9.78534 18.572C9.8572 18.5227 9.89314 18.4523 9.89314 18.3607V17.9479C9.89314 17.903 9.8838 17.8631 9.86514 17.8279C9.84647 17.7927 9.81894 17.7629 9.78254 17.7386C9.74706 17.7137 9.70366 17.6947 9.65232 17.682C9.60099 17.6691 9.54266 17.6628 9.47732 17.6628H8.74368V18.6459H9.47732ZM8.45667 18.8427V17.4659H9.47732C9.58466 17.4659 9.68126 17.4775 9.76713 17.5005C9.85394 17.5228 9.92767 17.5552 9.98835 17.5974C10.0499 17.639 10.0971 17.6896 10.1297 17.7491C10.1634 17.8087 10.1802 17.8749 10.1802 17.9479V18.3607C10.1802 18.4337 10.1634 18.4999 10.1297 18.5595C10.0971 18.619 10.0499 18.6699 9.98835 18.7121C9.92767 18.7537 9.85394 18.7861 9.76713 18.8091C9.68126 18.8315 9.58466 18.8427 9.47732 18.8427H8.45667Z" fill="#D26500"/>
<path d="M10.984 17.427H12.5V17.6293H11.2814V18.0342H12.3215V18.2365H11.2814V18.6403H12.5V18.8427H10.984V17.427Z" fill="#D26500"/>
<path d="M13.1383 17.6293C13.1383 17.6017 13.1458 17.5757 13.1609 17.5514C13.1759 17.5264 13.1966 17.505 13.223 17.4872C13.2493 17.4687 13.2798 17.4543 13.3146 17.4437C13.3503 17.4325 13.388 17.427 13.4275 17.427H14.5247C14.5642 17.427 14.6014 17.4325 14.6362 17.4437C14.6719 17.4543 14.7029 17.4687 14.7292 17.4872C14.7555 17.505 14.7763 17.5264 14.7913 17.5514C14.8063 17.5757 14.8138 17.6017 14.8138 17.6293V17.812H14.5247V17.6293H13.4275V18.6403H14.5247V18.4586H14.8138V18.6403C14.8138 18.6679 14.8063 18.6943 14.7913 18.7193C14.7763 18.7437 14.7555 18.7651 14.7292 18.7835C14.7029 18.8019 14.6719 18.8163 14.6362 18.8269C14.6014 18.8374 14.5642 18.8427 14.5247 18.8427H13.4275C13.388 18.8427 13.3503 18.8374 13.3146 18.8269C13.2798 18.8163 13.2493 18.8019 13.223 18.7835C13.1966 18.7651 13.1759 18.7437 13.1609 18.7193C13.1458 18.6943 13.1383 18.6679 13.1383 18.6403V17.6293Z" fill="#D26500"/>
<path d="M17.367 18.6403C17.367 18.6679 17.359 18.6943 17.3431 18.7193C17.3272 18.7437 17.3053 18.7651 17.2774 18.7835C17.2495 18.8019 17.2166 18.8163 17.1788 18.8269C17.142 18.8374 17.1027 18.8427 17.0609 18.8427H15.8379C15.7961 18.8427 15.7563 18.8374 15.7185 18.8269C15.6817 18.8163 15.6493 18.8019 15.6215 18.7835C15.5936 18.7651 15.5717 18.7437 15.5557 18.7193C15.5398 18.6943 15.5319 18.6679 15.5319 18.6403V17.6293C15.5319 17.6017 15.5398 17.5757 15.5557 17.5514C15.5717 17.5264 15.5936 17.505 15.6215 17.4872C15.6493 17.4687 15.6817 17.4543 15.7185 17.4437C15.7563 17.4325 15.7961 17.427 15.8379 17.427H17.0609C17.1027 17.427 17.142 17.4325 17.1788 17.4437C17.2166 17.4543 17.2495 17.4687 17.2774 17.4872C17.3053 17.505 17.3272 17.5264 17.3431 17.5514C17.359 17.5757 17.367 17.6017 17.367 17.6293V18.6403ZM15.8379 17.6293V18.6403H17.0609V17.6293H15.8379Z" fill="#D26500"/>
<path d="M19.7402 17.9325C19.7402 18.1299 19.6155 18.2424 19.3662 18.2701L19.7606 18.8427H19.429L19.0405 18.277H18.3845V18.8427H18.0851V17.427H19.2318C19.5707 17.427 19.7402 17.5418 19.7402 17.7715V17.9325ZM18.3845 18.0746H19.2157C19.2956 18.0746 19.3531 18.0628 19.3881 18.039C19.4232 18.0154 19.4407 17.9765 19.4407 17.9225V17.7814C19.4407 17.7274 19.4232 17.6886 19.3881 17.6649C19.3531 17.6412 19.2956 17.6293 19.2157 17.6293H18.3845V18.0746Z" fill="#D26500"/>
<path d="M5.07983 13.2584V11.5674H14.8139V10.1124H5.07983V5.07865H18.0054C19.0629 5.07865 19.9203 5.92378 19.9203 6.96629V14.7135C19.9203 15.756 19.0629 16.6011 18.0054 16.6011H5.07983V14.7135H18.2048V6.84831H6.87505V8.26404H15.3325C16.0816 8.26404 16.6889 8.86268 16.6889 9.60112V11.9213C16.6889 12.6598 16.0816 13.2584 15.3325 13.2584H5.07983Z" fill="#D26500"/>
</g>
</g>
<defs>
<clipPath id="clip0_603_48">
<rect width="24" height="24" fill="white"/>
</clipPath>
<clipPath id="clip1_603_48">
<rect width="15" height="14" fill="white" transform="translate(5 5)"/>
</clipPath>
</defs>
</svg>
