<svg width="24" height="24" viewBox="0 0 24 24" fill="none" xmlns="http://www.w3.org/2000/svg">
<g clip-path="url(#clip0_456_416)">
<circle cx="12" cy="12" r="12" fill="white"/>
<path d="M13.9775 8.00008C13.8123 8.00278 13.6549 8.07399 13.5398 8.19806C13.4247 8.32214 13.3613 8.48895 13.3636 8.66189V14.5378C13.3624 14.6243 13.3777 14.7102 13.4085 14.7905C13.4393 14.8708 13.485 14.9439 13.5431 15.0055C13.6011 15.0671 13.6702 15.116 13.7465 15.1494C13.8227 15.1828 13.9046 15.2 13.9872 15.2C14.0698 15.2 14.1517 15.1828 14.2279 15.1494C14.3042 15.116 14.3733 15.0671 14.4313 15.0055C14.4894 14.9439 14.5351 14.8708 14.5659 14.7905C14.5967 14.7102 14.612 14.6243 14.6108 14.5378V8.66189C14.612 8.57454 14.5964 8.48784 14.5649 8.40692C14.5335 8.326 14.4869 8.25251 14.4278 8.1908C14.3687 8.12909 14.2984 8.08041 14.2211 8.04765C14.1437 8.01489 14.0609 7.99872 13.9775 8.00008ZM4.63253 8.66189C4.54989 8.66066 4.46784 8.67665 4.39115 8.70891C4.31446 8.74117 4.24466 8.78907 4.18581 8.84981C4.12695 8.91056 4.08022 8.98295 4.04832 9.06277C4.01643 9.14258 4 9.22825 4 9.31477C4 9.40129 4.01643 9.48695 4.04832 9.56677C4.08022 9.64659 4.12695 9.71898 4.18581 9.77972C4.24466 9.84047 4.31446 9.88837 4.39115 9.92063C4.46784 9.95289 4.54989 9.96887 4.63253 9.96765H6.62648L4.10389 14.1923C4.04503 14.2911 4.01249 14.4045 4.00963 14.521C4.00676 14.6374 4.03369 14.7524 4.08761 14.8543C4.14154 14.9561 4.22049 15.041 4.31631 15.1002C4.41212 15.1593 4.5213 15.1906 4.63253 15.1907H7.75075C7.83339 15.1919 7.91544 15.1759 7.99213 15.1437C8.06882 15.1114 8.13862 15.0635 8.19747 15.0028C8.25632 14.942 8.30306 14.8696 8.33495 14.7898C8.36685 14.71 8.38328 14.6243 8.38328 14.5378C8.38328 14.4513 8.36685 14.3656 8.33495 14.2858C8.30306 14.206 8.25632 14.1336 8.19747 14.0729C8.13862 14.0121 8.06882 13.9642 7.99213 13.932C7.91544 13.8997 7.83339 13.8837 7.75075 13.8849H5.75679L8.27939 9.66034C8.33824 9.56153 8.37079 9.44804 8.37365 9.33164C8.37651 9.21523 8.34959 9.10014 8.29567 8.99829C8.24174 8.89645 8.16278 8.81155 8.06697 8.7524C7.97116 8.69325 7.86198 8.662 7.75075 8.66189H4.63253ZM12.1065 10.6116C12.0042 10.6135 11.9039 10.6417 11.8145 10.6937C11.7251 10.7458 11.6493 10.82 11.5937 10.91C11.2834 10.7316 10.9335 10.6205 10.5572 10.6205C9.35904 10.6205 8.3744 11.6513 8.3744 12.9056C8.3744 14.1599 9.35904 15.1907 10.5572 15.1907C10.9331 15.1907 11.2824 15.0793 11.5925 14.9012C11.666 15.0202 11.7744 15.1109 11.9015 15.1597C12.0286 15.2085 12.1673 15.2127 12.2969 15.1717C12.4264 15.1307 12.5397 15.0466 12.6196 14.9323C12.6995 14.8179 12.7418 14.6795 12.7399 14.5378V12.9056V11.2734C12.7411 11.1861 12.7254 11.0994 12.694 11.0184C12.6626 10.9375 12.6159 10.864 12.5569 10.8023C12.4978 10.7406 12.4275 10.6919 12.3502 10.6592C12.2728 10.6264 12.19 10.6102 12.1065 10.6116ZM17.4172 10.6205C16.2191 10.6205 15.2345 11.6513 15.2345 12.9056C15.2345 14.1599 16.2191 15.1907 17.4172 15.1907C18.6154 15.1907 19.6 14.1599 19.6 12.9056C19.6 11.6513 18.6154 10.6205 17.4172 10.6205ZM10.5572 11.9263C11.0812 11.9263 11.4926 12.357 11.4926 12.9056C11.4926 13.4542 11.0812 13.8849 10.5572 13.8849C10.0331 13.8849 9.62169 13.4542 9.62169 12.9056C9.62169 12.357 10.0331 11.9263 10.5572 11.9263ZM17.4172 11.9263C17.9413 11.9263 18.3527 12.357 18.3527 12.9056C18.3527 13.4542 17.9413 13.8849 17.4172 13.8849C16.8932 13.8849 16.4818 13.4542 16.4818 12.9056C16.4818 12.357 16.8932 11.9263 17.4172 11.9263Z" fill="black"/>
</g>
<defs>
<clipPath id="clip0_456_416">
<rect width="24" height="24" fill="white"/>
</clipPath>
</defs>
</svg>
