<svg width="20" height="20" viewBox="0 0 20 20" fill="none" xmlns="http://www.w3.org/2000/svg">
<path d="M2.38095 0C1.07166 0 0 1.07166 0 2.38095V17.619C0 18.9283 1.07166 20 2.38095 20H17.619C18.9283 20 20 18.9283 20 17.619V2.38095C20 1.07166 18.9283 0 17.619 0H2.38095ZM2.38095 0.952381H5.51246C3.86573 2.66577 2.85714 4.91601 2.85714 7.38095C2.85714 9.93398 3.93721 12.2612 5.6901 13.9946C5.62639 13.9339 5.70887 14.0395 5.71708 14.2262C5.72554 14.4189 5.69652 14.6838 5.61849 14.9461C5.46243 15.4706 5.13603 15.9542 4.61124 16.1291C4.51156 16.1623 4.42567 16.2276 4.36693 16.3147C4.3082 16.4018 4.27992 16.5059 4.2865 16.6107C4.29308 16.7156 4.33415 16.8153 4.40331 16.8944C4.47248 16.9735 4.56585 17.0275 4.6689 17.048C5.98304 17.3108 6.9126 16.9151 7.59766 16.6006C8.28271 16.2861 8.65287 16.0745 9.34524 16.3542L9.35082 16.356C10.6472 16.8627 12.0744 17.1429 13.5714 17.1429C15.5702 17.1429 17.4434 16.6434 19.0476 15.7729V17.619C19.0476 18.4136 18.4136 19.0476 17.619 19.0476H2.38095C1.58644 19.0476 0.952381 18.4136 0.952381 17.619V2.38095C0.952381 1.58644 1.58644 0.952381 2.38095 0.952381Z" fill="black"/>
<path d="M14.3145 5.00007C14.1769 5.00232 14.0457 5.06166 13.9498 5.16505C13.8539 5.26845 13.8011 5.40746 13.803 5.55157V10.4482C13.802 10.5203 13.8147 10.5919 13.8404 10.6588C13.8661 10.7257 13.9042 10.7866 13.9526 10.8379C14.0009 10.8892 14.0585 10.93 14.1221 10.9578C14.1856 10.9857 14.2538 11 14.3227 11C14.3915 11 14.4597 10.9857 14.5233 10.9578C14.5868 10.93 14.6444 10.8892 14.6928 10.8379C14.7411 10.7866 14.7793 10.7257 14.8049 10.6588C14.8306 10.5919 14.8433 10.5203 14.8424 10.4482V5.55157C14.8433 5.47878 14.8303 5.40653 14.8041 5.3391C14.7779 5.27167 14.739 5.21043 14.6898 5.159C14.6406 5.10757 14.582 5.06701 14.5176 5.03971C14.4531 5.01241 14.3841 4.99893 14.3145 5.00007ZM6.52711 5.55157C6.45824 5.55055 6.38986 5.56387 6.32596 5.59076C6.26205 5.61764 6.20388 5.65755 6.15484 5.70818C6.1058 5.7588 6.06685 5.81912 6.04027 5.88564C6.01369 5.95215 6 6.02354 6 6.09564C6 6.16774 6.01369 6.23913 6.04027 6.30564C6.06685 6.37216 6.1058 6.43248 6.15484 6.4831C6.20388 6.53373 6.26205 6.57364 6.32596 6.60052C6.38986 6.62741 6.45824 6.64073 6.52711 6.63971H8.18874L6.08658 10.1602C6.03753 10.2425 6.01041 10.3371 6.00802 10.4341C6.00564 10.5311 6.02807 10.627 6.07301 10.7119C6.11795 10.7968 6.18374 10.8675 6.26359 10.9168C6.34343 10.9661 6.43441 10.9922 6.52711 10.9923H9.12562C9.19449 10.9933 9.26287 10.98 9.32677 10.9531C9.39068 10.9262 9.44885 10.8863 9.49789 10.8356C9.54693 10.785 9.58588 10.7247 9.61246 10.6582C9.63904 10.5917 9.65273 10.5203 9.65273 10.4482C9.65273 10.3761 9.63904 10.3047 9.61246 10.2382C9.58588 10.1717 9.54693 10.1113 9.49789 10.0607C9.44885 10.0101 9.39068 9.97018 9.32677 9.9433C9.26287 9.91641 9.19449 9.9031 9.12562 9.90411H7.46399L9.56616 6.38361C9.6152 6.30127 9.64232 6.2067 9.64471 6.1097C9.6471 6.01269 9.62466 5.91678 9.57972 5.83191C9.53479 5.74704 9.46899 5.67629 9.38914 5.627C9.3093 5.57771 9.21832 5.55167 9.12562 5.55157H6.52711ZM12.7554 7.17634C12.6702 7.17791 12.5866 7.20142 12.5121 7.24478C12.4376 7.28814 12.3744 7.35003 12.3281 7.42499C12.0695 7.27633 11.7779 7.18378 11.4643 7.18378C10.4659 7.18378 9.64533 8.04278 9.64533 9.08801C9.64533 10.1333 10.4659 10.9923 11.4643 10.9923C11.7776 10.9923 12.0687 10.8994 12.3271 10.751C12.3883 10.8502 12.4787 10.9258 12.5846 10.9664C12.6905 11.0071 12.8061 11.0106 12.9141 10.9764C13.022 10.9422 13.1164 10.8722 13.183 10.7769C13.2496 10.6816 13.2848 10.5662 13.2833 10.4482V9.08801V7.72784C13.2842 7.65505 13.2712 7.5828 13.245 7.51537C13.2188 7.44794 13.1799 7.3867 13.1307 7.33527C13.0815 7.28384 13.0229 7.24328 12.9585 7.21598C12.894 7.18868 12.825 7.1752 12.7554 7.17634ZM17.181 7.18378C16.1826 7.18378 15.3621 8.04278 15.3621 9.08801C15.3621 10.1333 16.1826 10.9923 17.181 10.9923C18.1795 10.9923 19 10.1333 19 9.08801C19 8.04278 18.1795 7.18378 17.181 7.18378ZM11.4643 8.27191C11.901 8.27191 12.2438 8.63085 12.2438 9.08801C12.2438 9.54518 11.901 9.90411 11.4643 9.90411C11.0276 9.90411 10.6847 9.54518 10.6847 9.08801C10.6847 8.63085 11.0276 8.27191 11.4643 8.27191ZM17.181 8.27191C17.6177 8.27191 17.9606 8.63085 17.9606 9.08801C17.9606 9.54518 17.6177 9.90411 17.181 9.90411C16.7443 9.90411 16.4015 9.54518 16.4015 9.08801C16.4015 8.63085 16.7443 8.27191 17.181 8.27191Z" fill="white"/>
</svg>
