<svg width="770" height="234" viewBox="0 0 770 234" fill="none" xmlns="http://www.w3.org/2000/svg">
<path d="M172.024 171L146.17 126.36H155.718L175.682 161.08L195.708 126.36H205.194L179.34 171H172.024ZM218.148 171C216.577 171 215.13 170.607 213.808 169.822C212.526 169.037 211.493 168.003 210.708 166.722C209.922 165.399 209.53 163.953 209.53 162.382V126.36H217.714V162.01C217.714 162.217 217.776 162.403 217.9 162.568C218.065 162.692 218.251 162.754 218.458 162.754H245.118C245.324 162.754 245.51 162.692 245.676 162.568C245.841 162.403 245.924 162.217 245.924 162.01V126.36H254.17V162.382C254.17 163.953 253.777 165.399 252.992 166.722C252.206 168.003 251.152 169.037 249.83 169.822C248.548 170.607 247.122 171 245.552 171H218.148ZM269.491 171C267.921 171 266.474 170.607 265.151 169.822C263.87 169.037 262.837 168.003 262.051 166.722C261.266 165.399 260.873 163.953 260.873 162.382V134.978C260.873 133.407 261.266 131.981 262.051 130.7C262.837 129.377 263.87 128.323 265.151 127.538C266.474 126.753 267.921 126.36 269.491 126.36H296.895C298.466 126.36 299.892 126.753 301.173 127.538C302.496 128.323 303.55 129.377 304.335 130.7C305.121 131.981 305.513 133.407 305.513 134.978V162.382C305.513 163.953 305.121 165.399 304.335 166.722C303.55 168.003 302.496 169.037 301.173 169.822C299.892 170.607 298.466 171 296.895 171H269.491ZM269.801 162.754H296.461C296.668 162.754 296.854 162.692 297.019 162.568C297.185 162.403 297.267 162.217 297.267 162.01V135.35C297.267 135.143 297.185 134.978 297.019 134.854C296.854 134.689 296.668 134.606 296.461 134.606H269.801C269.595 134.606 269.409 134.689 269.243 134.854C269.119 134.978 269.057 135.143 269.057 135.35V162.01C269.057 162.217 269.119 162.403 269.243 162.568C269.409 162.692 269.595 162.754 269.801 162.754ZM312.341 171V126.36H321.331L348.735 158.972V126.36H356.981V171H347.991L320.525 138.326V171H312.341Z" fill="#75C043"/>
<path d="M379.923 171V134.606H361.695V126.36H406.335V134.606H388.169V171H379.923ZM446.56 171L433.106 154.942H443.832L455.488 168.706V171H446.56ZM410.972 171V126.422H446.932C448.503 126.422 449.949 126.815 451.272 127.6C452.595 128.385 453.649 129.439 454.434 130.762C455.219 132.043 455.612 133.469 455.612 135.04V147.068C455.612 148.639 455.219 150.085 454.434 151.408C453.649 152.731 452.595 153.785 451.272 154.57C449.949 155.314 448.503 155.686 446.932 155.686L419.156 155.748V171H410.972ZM419.9 147.44H446.56C446.767 147.44 446.953 147.378 447.118 147.254C447.283 147.13 447.366 146.965 447.366 146.758V135.35C447.366 135.143 447.283 134.978 447.118 134.854C446.953 134.689 446.767 134.606 446.56 134.606H419.9C419.693 134.606 419.507 134.689 419.342 134.854C419.218 134.978 419.156 135.143 419.156 135.35V146.758C419.156 146.965 419.218 147.13 419.342 147.254C419.507 147.378 419.693 147.44 419.9 147.44ZM470.628 171C469.057 171 467.611 170.607 466.288 169.822C465.007 169.037 463.973 168.003 463.188 166.722C462.403 165.399 462.01 163.953 462.01 162.382V134.978C462.01 133.407 462.403 131.981 463.188 130.7C463.973 129.377 465.007 128.323 466.288 127.538C467.611 126.753 469.057 126.36 470.628 126.36H498.032C499.603 126.36 501.029 126.753 502.31 127.538C503.633 128.323 504.687 129.377 505.472 130.7C506.257 131.981 506.65 133.407 506.65 134.978V162.382C506.65 163.953 506.257 165.399 505.472 166.722C504.687 168.003 503.633 169.037 502.31 169.822C501.029 170.607 499.603 171 498.032 171H470.628ZM470.938 162.754H497.598C497.805 162.754 497.991 162.692 498.156 162.568C498.321 162.403 498.404 162.217 498.404 162.01V135.35C498.404 135.143 498.321 134.978 498.156 134.854C497.991 134.689 497.805 134.606 497.598 134.606H470.938C470.731 134.606 470.545 134.689 470.38 134.854C470.256 134.978 470.194 135.143 470.194 135.35V162.01C470.194 162.217 470.256 162.403 470.38 162.568C470.545 162.692 470.731 162.754 470.938 162.754ZM513.478 171V126.36H522.468L549.872 158.972V126.36H558.118V171H549.128L521.662 138.326V171H513.478ZM573.682 171C572.111 171 570.664 170.607 569.342 169.822C568.06 169.037 567.027 168.003 566.242 166.722C565.456 165.399 565.064 163.953 565.064 162.382V134.978C565.064 133.407 565.456 131.981 566.242 130.7C567.027 129.377 568.06 128.323 569.342 127.538C570.664 126.753 572.111 126.36 573.682 126.36H601.024C602.594 126.36 604.041 126.753 605.364 127.538C606.686 128.323 607.74 129.377 608.526 130.7C609.311 131.981 609.704 133.407 609.704 134.978V138.45H601.458V135.35C601.458 135.143 601.375 134.978 601.21 134.854C601.044 134.689 600.858 134.606 600.652 134.606H573.992C573.785 134.606 573.599 134.689 573.434 134.854C573.31 134.978 573.248 135.143 573.248 135.35V162.01C573.248 162.217 573.31 162.403 573.434 162.568C573.599 162.692 573.785 162.754 573.992 162.754H600.652C600.858 162.754 601.044 162.692 601.21 162.568C601.375 162.403 601.458 162.217 601.458 162.01V153.95H591.352V145.704H609.704V162.382C609.704 163.953 609.311 165.399 608.526 166.722C607.74 168.003 606.686 169.037 605.364 169.822C604.041 170.607 602.594 171 601.024 171H573.682ZM616.529 171V126.36H625.519L652.923 158.972V126.36H661.169V171H652.179L624.713 138.326V171H616.529ZM668.177 171V126.36H676.361V144.526H705.625V126.36H713.809V171H705.625V152.834H676.361V171H668.177ZM720.975 171V134.978C720.975 133.407 721.368 131.981 722.153 130.7C722.938 129.377 723.972 128.323 725.253 127.538C726.576 126.753 728.022 126.36 729.593 126.36H756.935C758.506 126.36 759.952 126.753 761.275 127.538C762.598 128.323 763.652 129.377 764.437 130.7C765.222 131.981 765.615 133.407 765.615 134.978V171H757.369V155.996H729.159V171H720.975ZM729.159 147.812H757.369V135.35C757.369 135.143 757.286 134.978 757.121 134.854C756.956 134.689 756.77 134.606 756.563 134.606H729.903C729.696 134.606 729.51 134.689 729.345 134.854C729.221 134.978 729.159 135.143 729.159 135.35V147.812Z" fill="#0095DA"/>
<path d="M94.7802 36.4379C74.3558 20.5582 36.7425 31.0479 11.0476 60.4147C27.1197 51.8594 42.2342 61.8906 76.6439 98.6526C101.075 118.697 120.829 117.633 168.126 91.2306C150.422 91.7938 115.205 52.3176 94.7802 36.4379Z" fill="#75C043"/>
<path d="M60.6896 108.867C41.2514 102.855 16.4896 121.02 5.73983 149.763C15.1893 139.005 29.0962 142.188 64.6241 159.68C88.1672 167.643 102.406 161.374 129.873 128.812C117.004 134.143 80.1277 114.878 60.6896 108.867Z" fill="#75C043"/>
<path d="M67.5502 182.915C55.0252 188.025 49.9618 207.804 56.5615 227.11C56.8797 217.595 65.3691 213.365 91.0051 207.369C106.463 201.531 111.136 192.303 111.517 163.983C107.152 172.151 80.0751 177.805 67.5502 182.915Z" fill="#75C043"/>
<path d="M151.964 192.112L158.806 201H156.364L150.688 193.52H150.578L148.136 196.05V201H146.134V185.644H148.136V193.498H148.202L155.616 185.644H158.234L151.964 192.112ZM171.212 185.644H173.214V201H171.212V194.268H162.874V201H160.872V185.644H162.874V192.398H171.212V185.644ZM178.712 187.624C180.105 186.157 181.96 185.424 184.278 185.424C186.595 185.424 188.45 186.157 189.844 187.624C191.237 189.091 191.956 190.99 192 193.322C191.956 195.654 191.237 197.553 189.844 199.02C188.45 200.487 186.595 201.22 184.278 201.22C181.96 201.22 180.105 200.487 178.712 199.02C177.318 197.553 176.6 195.654 176.556 193.322C176.6 190.99 177.318 189.091 178.712 187.624ZM178.558 193.322C178.558 195.067 179.064 196.512 180.076 197.656C181.102 198.785 182.496 199.35 184.256 199.35C186.03 199.35 187.431 198.785 188.458 197.656C189.484 196.512 189.998 195.067 189.998 193.322C189.998 191.577 189.484 190.139 188.458 189.01C187.431 187.866 186.03 187.294 184.256 187.294C182.496 187.294 181.102 187.866 180.076 189.01C179.064 190.139 178.558 191.577 178.558 193.322ZM185.18 181.794L187.666 184.5H185.928L184.278 182.894L182.628 184.5H180.89L183.376 181.794H185.18ZM206.708 185.644H208.71V201H206.246L197.358 188.35H197.314V201H195.312V185.644H197.776L206.642 198.272H206.708V185.644ZM219.858 192.574H225.644V199.526C223.752 200.655 221.794 201.22 219.77 201.22C217.467 201.22 215.605 200.487 214.182 199.02C212.759 197.553 212.048 195.654 212.048 193.322C212.048 190.99 212.781 189.091 214.248 187.624C215.715 186.157 217.475 185.424 219.528 185.424C221.596 185.424 223.554 185.989 225.402 187.118V189.186H225.314C223.51 187.969 221.728 187.36 219.968 187.36C218.223 187.36 216.8 187.888 215.7 188.944C214.6 190 214.05 191.437 214.05 193.256C214.05 195.06 214.585 196.527 215.656 197.656C216.727 198.771 218.186 199.328 220.034 199.328C221.413 199.328 222.696 199.005 223.884 198.36V194.378H219.858V192.574ZM241.944 192.574H247.73V199.526C245.838 200.655 243.88 201.22 241.856 201.22C239.553 201.22 237.69 200.487 236.268 199.02C234.845 197.553 234.134 195.654 234.134 193.322C234.134 190.99 234.867 189.091 236.334 187.624C237.8 186.157 239.56 185.424 241.614 185.424C243.682 185.424 245.64 185.989 247.488 187.118V189.186H247.4C245.596 187.969 243.814 187.36 242.054 187.36C240.308 187.36 238.886 187.888 237.786 188.944C236.686 190 236.136 191.437 236.136 193.256C236.136 195.06 236.671 196.527 237.742 197.656C238.812 198.771 240.272 199.328 242.12 199.328C243.498 199.328 244.782 199.005 245.97 198.36V194.378H241.944V192.574ZM253.431 185.644V201H251.429V185.644H253.431ZM268.614 201L266.964 197.062H259.506L257.856 201H255.678L262.19 185.644H264.28L270.792 201H268.614ZM260.298 195.126V195.236H266.172V195.126L263.268 188.108H263.224L260.298 195.126ZM284.438 185.644H286.44V201H283.976L275.088 188.35H275.044V201H273.042V185.644H275.506L284.372 198.272H284.438V185.644ZM302.775 193.3L308.715 201H306.229L301.631 194.84H301.521L296.989 201H294.613L300.509 193.322L294.613 185.644H297.121L301.631 191.76H301.741L306.229 185.644H308.649L302.775 193.3ZM322.046 201L320.396 197.062H312.938L311.288 201H309.11L315.622 185.644H317.712L324.224 201H322.046ZM313.73 195.126V195.236H319.604V195.126L316.7 188.108H316.656L313.73 195.126ZM337.87 185.644H339.872V201H337.408L328.52 188.35H328.476V201H326.474V185.644H328.938L337.804 198.272H337.87V185.644ZM354.474 185.644H356.476V201H354.474V194.268H346.136V201H344.134V185.644H346.136V192.398H354.474V185.644Z" fill="#0095DA"/>
</svg>
