<svg xmlns="http://www.w3.org/2000/svg" width="24" height="24" viewBox="0 0 24 24" fill="none" class="injected-svg" data-src="/images/icons/open-menu.svg" xmlns:xlink="http://www.w3.org/1999/xlink" role="img">
<path d="M3.75 12.75H20.25C20.6642 12.75 21 12.4142 21 12C21 11.5858 20.6642 11.25 20.25 11.25H3.75C3.33579 11.25 3 11.5858 3 12C3 12.4142 3.33579 12.75 3.75 12.75Z" fill="white"></path>
<path d="M3.75 6.75H20.25C20.6642 6.75 21 6.41421 21 6C21 5.58579 20.6642 5.25 20.25 5.25H3.75C3.33579 5.25 3 5.58579 3 6C3 6.41421 3.33579 6.75 3.75 6.75Z" fill="white"></path>
<path d="M3.75 18.75H20.25C20.6642 18.75 21 18.4142 21 18C21 17.5858 20.6642 17.25 20.25 17.25H3.75C3.33579 17.25 3 17.5858 3 18C3 18.4142 3.33579 18.75 3.75 18.75Z" fill="white"></path>
</svg>