<svg width="26" height="27" viewBox="0 0 26 27" fill="none" xmlns="http://www.w3.org/2000/svg">
<path d="M16.3473 0.943604C13.8839 0.943604 12.6523 2.17529 12.6523 4.63865V21.8822C12.6523 24.3456 13.8839 25.5773 16.3473 25.5773H21.274C23.7374 25.5773 24.9691 24.3456 24.9691 21.8822V4.63865C24.9691 2.17529 23.7374 0.943604 21.274 0.943604" stroke="#AE935F" stroke-width="1.84752" stroke-linecap="round"/>
<path d="M12.6523 5.87033H18.8107" stroke="#AE935F" stroke-width="1.84752" stroke-linecap="round"/>
<path d="M12.6523 20.6505H17.579" stroke="#AE935F" stroke-width="1.84752" stroke-linecap="round"/>
<path d="M12.6523 15.6622L18.8107 15.7238" stroke="#AE935F" stroke-width="1.84752" stroke-linecap="round"/>
<path d="M12.6523 10.7971H16.3473" stroke="#AE935F" stroke-width="1.84752" stroke-linecap="round"/>
<path d="M1.63929 9.59002V4.57707C1.63929 2.58174 3.27743 0.943604 5.28507 0.943604C7.2804 0.943604 8.91854 2.58174 8.91854 4.57707V20.5397C8.91854 21.0939 8.68452 21.9315 8.40123 22.4118L7.39125 24.0869C6.23347 26.0207 4.32436 26.0207 3.16658 24.0869L2.1566 22.4118C1.87331 21.9315 1.63929 21.0939 1.63929 20.5397V15.6622" stroke="#AE935F" stroke-width="1.84752" stroke-linecap="round"/>
<path d="M8.91854 7.10202H1.63929" stroke="#AE935F" stroke-width="1.84752" stroke-linecap="round"/>
</svg>
