<svg width="21" height="21" viewBox="0 0 21 21" fill="none" xmlns="http://www.w3.org/2000/svg">
<path d="M0.787952 20.3009C0.602106 20.3009 0.425525 20.2265 0.295433 20.0964C0.118879 19.9199 0.0445873 19.6597 0.109633 19.4181L1.28047 15.0414C0.499919 13.5918 0.0910302 11.9564 0.0910302 10.3024C0.0910302 4.79205 4.56991 0.313171 10.0802 0.313171C15.5905 0.313171 20.0694 4.79205 20.0694 10.3024C20.0694 15.8127 15.5905 20.2916 10.0802 20.2916C8.3983 20.2916 6.75363 19.8734 5.28545 19.0743L0.973807 20.273C0.908761 20.2916 0.852998 20.3009 0.787952 20.3009ZM5.37834 17.634C5.49914 17.634 5.61995 17.6712 5.73146 17.727C7.04167 18.4982 8.54697 18.907 10.0802 18.907C14.8193 18.907 18.6756 15.0507 18.6756 10.3116C18.6756 5.57262 14.8193 1.71632 10.0802 1.71632C5.34117 1.71632 1.48487 5.57262 1.48487 10.3116C1.48487 11.8263 1.88443 13.3038 2.63711 14.6047C2.73003 14.7627 2.75793 14.9578 2.71146 15.1343L1.78224 18.6097L5.20179 17.6618C5.25754 17.6433 5.32259 17.634 5.37834 17.634Z" fill="#AE935F"/>
<path d="M12.6264 15.6636C12.0503 15.6636 11.4556 15.5335 10.833 15.2641C10.2476 15.0132 9.66214 14.6786 9.09531 14.2605C8.53778 13.8516 7.9896 13.387 7.48781 12.8852C6.98603 12.3742 6.52137 11.8352 6.11251 11.2777C5.69435 10.6923 5.35983 10.1161 5.11823 9.5493C4.85805 8.93601 4.72797 8.33201 4.72797 7.75589C4.72797 7.34703 4.80229 6.95675 4.94167 6.59435C5.09035 6.21337 5.33196 5.86954 5.64789 5.57219C6.2426 4.98678 7.09753 4.77307 7.77586 5.0983C8.00817 5.20052 8.20331 5.36778 8.35202 5.59079L9.42984 7.10542C9.54134 7.25409 9.62507 7.41206 9.69011 7.57003C9.76445 7.75588 9.81091 7.94174 9.81091 8.1183C9.81091 8.35989 9.74577 8.60149 9.61568 8.81521C9.53205 8.95459 9.41125 9.12185 9.25328 9.27982L9.13248 9.40991C9.18824 9.48425 9.25328 9.57718 9.3555 9.68868C9.55064 9.9117 9.76436 10.1533 9.99667 10.3856C10.229 10.6086 10.4613 10.8316 10.6936 11.0268C10.8051 11.1197 10.8981 11.194 10.9724 11.2405L11.1024 11.1104C11.2697 10.9431 11.4371 10.813 11.6043 10.7294C11.911 10.5343 12.3848 10.4878 12.8029 10.6644C12.9516 10.7201 13.1003 10.8038 13.2583 10.9153L14.8102 12.0118C15.0239 12.1604 15.1911 12.3649 15.3026 12.5972C15.3955 12.8295 15.4327 13.0339 15.4327 13.2476C15.4327 13.5264 15.3676 13.7959 15.2468 14.0561C15.126 14.2977 14.9866 14.5114 14.8194 14.7065C14.522 15.0317 14.1783 15.2733 13.8066 15.4313C13.4349 15.5893 13.0352 15.6636 12.6264 15.6636ZM7.09749 6.35274C7.04174 6.35274 6.85594 6.35274 6.62363 6.58505C6.44708 6.75231 6.32625 6.92888 6.24262 7.12402C6.15899 7.31916 6.12181 7.54217 6.12181 7.76519C6.12181 8.15547 6.21472 8.57361 6.40057 9.01964C6.59571 9.48425 6.8838 9.97674 7.2369 10.4692C7.5993 10.9617 8.00816 11.4542 8.46353 11.9095C8.91885 12.3556 9.40196 12.7737 9.90374 13.1454C10.3869 13.4985 10.8795 13.7773 11.372 13.991C12.0782 14.2977 12.7286 14.372 13.2583 14.149C13.4441 14.0746 13.6114 13.9446 13.7786 13.7773C13.8623 13.6844 13.9274 13.5914 13.9831 13.4706C14.011 13.4056 14.0295 13.3313 14.0295 13.2662C14.0295 13.2476 14.0295 13.2198 14.0016 13.164L12.4498 12.0861C12.3848 12.0396 12.3197 12.0025 12.264 11.9839C12.2268 12.0025 12.1712 12.0303 12.0689 12.1326L11.7158 12.4857C11.4464 12.7551 11.0189 12.8295 10.6751 12.7087L10.5078 12.6343C10.2941 12.5228 10.0524 12.3556 9.78294 12.1233C9.52276 11.9002 9.27196 11.6679 9.00248 11.4078C8.7423 11.1383 8.50999 10.8874 8.28698 10.6272C8.04533 10.3391 7.87807 10.1068 7.76656 9.9117L7.66437 9.6701C7.63649 9.57718 7.62716 9.47496 7.62716 9.38204C7.62716 9.12185 7.72012 8.88955 7.89667 8.7037L8.24981 8.3413C8.35202 8.23909 8.38919 8.18334 8.40778 8.14617C8.3799 8.08113 8.34273 8.02536 8.29627 7.96032L7.209 6.4271L7.09749 6.35274Z" fill="#AE935F"/>
</svg>
