<svg width="26" height="26" viewBox="0 0 26 26" fill="none" xmlns="http://www.w3.org/2000/svg">
<path d="M9.16543 24.3298H16.1644C21.9968 24.3298 24.3298 21.9968 24.3298 16.1644V9.16543C24.3298 3.33298 21.9968 1 16.1644 1H9.16543C3.33298 1 1 3.33298 1 9.16543V16.1644C1 21.9968 3.33298 24.3298 9.16543 24.3298Z" stroke="#AE935F" stroke-width="1.74973" stroke-linecap="round" stroke-linejoin="round"/>
<path d="M16.7476 10.0403C17.7139 10.0403 18.4973 9.25692 18.4973 8.29057C18.4973 7.32421 17.7139 6.54083 16.7476 6.54083C15.7813 6.54083 14.9979 7.32421 14.9979 8.29057C14.9979 9.25692 15.7813 10.0403 16.7476 10.0403Z" stroke="#AE935F" stroke-width="1.74973" stroke-miterlimit="10" stroke-linecap="round" stroke-linejoin="round"/>
<path d="M8.58219 10.0403C9.54854 10.0403 10.3319 9.25692 10.3319 8.29057C10.3319 7.32421 9.54854 6.54083 8.58219 6.54083C7.61583 6.54083 6.83245 7.32421 6.83245 8.29057C6.83245 9.25692 7.61583 10.0403 8.58219 10.0403Z" stroke="#AE935F" stroke-width="1.74973" stroke-miterlimit="10" stroke-linecap="round" stroke-linejoin="round"/>
<path d="M8.46554 14.1813H16.8643C17.4475 14.1813 17.9141 14.6479 17.9141 15.2312C17.9141 18.1357 15.5695 20.4804 12.6649 20.4804C9.76034 20.4804 7.4157 18.1357 7.4157 15.2312C7.4157 14.6479 7.88229 14.1813 8.46554 14.1813Z" stroke="#AE935F" stroke-width="1.74973" stroke-miterlimit="10" stroke-linecap="round" stroke-linejoin="round"/>
</svg>
